<?xml version="1.0" encoding="UTF-8" standalone="no"?>
<svg
   xmlns:dc="http://purl.org/dc/elements/1.1/"
   xmlns:cc="http://creativecommons.org/ns#"
   xmlns:rdf="http://www.w3.org/1999/02/22-rdf-syntax-ns#"
   xmlns:svg="http://www.w3.org/2000/svg"
   xmlns="http://www.w3.org/2000/svg"
   xmlns:sodipodi="http://sodipodi.sourceforge.net/DTD/sodipodi-0.dtd"
   xmlns:inkscape="http://www.inkscape.org/namespaces/inkscape"
   viewBox="0 0 512 512"
   style="height: 512px; width: 512px;"
   version="1.1"
   id="svg6"
   sodipodi:docname="logo.svg"
   inkscape:version="1.0.2-2 (e86c870879, 2021-01-15)"
   inkscape:export-filename="C:\Gits\Form8sn\src\PdfSharpStd\Resources\logo.png"
   inkscape:export-xdpi="96"
   inkscape:export-ydpi="96">
  <metadata
     id="metadata12">
    <rdf:RDF>
      <cc:Work
         rdf:about="">
        <dc:format>image/svg+xml</dc:format>
        <dc:type
           rdf:resource="http://purl.org/dc/dcmitype/StillImage" />
        <dc:title></dc:title>
      </cc:Work>
    </rdf:RDF>
  </metadata>
  <defs
     id="defs10" />
  <sodipodi:namedview
     pagecolor="#ffffff"
     bordercolor="#666666"
     borderopacity="1"
     objecttolerance="10"
     gridtolerance="10"
     guidetolerance="10"
     inkscape:pageopacity="0"
     inkscape:pageshadow="2"
     inkscape:window-width="1325"
     inkscape:window-height="1005"
     id="namedview8"
     showgrid="false"
     inkscape:zoom="1.1739077"
     inkscape:cx="155.25032"
     inkscape:cy="265.39414"
     inkscape:window-x="326"
     inkscape:window-y="34"
     inkscape:window-maximized="0"
     inkscape:current-layer="svg6" />
  <path
     d="m 372.63961,354.71215 c 0.0312,-28.10601 8.68997,-54.28381 34.36539,-65.71715 v -77.55 c -64.49,0 -154.44,35.64 -154.44,35.64 0,0 -89.95,-35.64 -154.44,-35.64 v 74.92 c 27.95998,16.54892 33.48218,36.18623 33.48218,66.98432 0,30.79809 -5.65022,50.74274 -33.48218,68.29568 v 7 c 64.49,0 154.44,41.58 154.44,41.58 0,0 89.99,-41.55 154.44,-41.55 v -9.68 c -25.67542,-11.43334 -34.33415,-36.17684 -34.36539,-64.28285 z"
     id="path65"
     sodipodi:nodetypes="ccccccscccccc" />
  <path
     d="m 76.105,298.845 c -22.311023,0 -42.425127,13.44046 -50.961768,34.05317 -8.536624,20.61268 -3.814361,44.33762 11.963277,60.11239 15.777638,15.77478 39.503432,20.49274 60.114557,11.95238 20.611164,-8.54038 22.184724,-29.59947 22.180684,-51.91049 C 119.39575,322.59233 106.56512,298.845 76.105,298.845 Z"
     id="path2" />
  <g
     aria-label="#"
     transform="matrix(2.1515924,0,0,2.1515924,-165.80765,-50.088962)"
     id="text16"
     style="font-style:normal;font-variant:normal;font-weight:normal;font-stretch:normal;font-size:96px;line-height:1.25;font-family:Dave;-inkscape-font-specification:Dave;white-space:pre;inline-size:80.0872;fill:#000000;fill-opacity:1;stroke:none">
    <path
       d="m 199.89453,93.296028 3.75,-22.59375 h -13.875 l -3.75,22.59375 z m -25.21875,22.687502 2.53125,-15.09375 h -7.59375 v -7.593752 h 8.8125 l 3.84375,-22.59375 h -7.59375 v -7.59375 h 8.8125 l 2.53125,-15.09375 h 7.5 l -2.4375,15.09375 h 13.78125 l 2.53125,-15.09375 h 7.59375 l -2.53125,15.09375 h 7.5 v 7.59375 h -8.8125 l -3.75,22.59375 h 7.59375 v 7.593752 h -8.8125 l -2.53125,15.09375 h -7.59375 l 2.53125,-15.09375 h -13.875 l -2.4375,15.09375 z"
       id="path18" />
  </g>
  <path
     d="m 428.08039,299.10043 c 22.31102,0 42.42513,13.44046 50.96177,34.05317 8.53662,20.61268 3.81436,44.33762 -11.96328,60.11239 -15.77764,15.77478 -39.50343,20.49274 -60.11456,11.95238 -20.61116,-8.54038 -22.18472,-29.59947 -22.18068,-51.91049 0.006,-30.46012 12.83663,-54.20745 43.29675,-54.20745 z"
     id="path2-5" />
  <g
     aria-label="PDF"
     id="text27"
     style="font-style:normal;font-variant:normal;font-weight:bold;font-stretch:normal;font-size:40px;line-height:1.25;font-family:Dave;-inkscape-font-specification:'Dave, Bold';font-variant-ligatures:normal;font-variant-caps:normal;font-variant-numeric:normal;font-variant-east-asian:normal;fill:#ffffff;fill-opacity:1;stroke:none"
     transform="matrix(3.2472293,0,0,3.2472293,-501.71501,-690.5892)">
    <path
       d="m 214.3215,312.99866 2.77344,-2.77344 v -2.69531 l -2.77344,-2.8125 h -5.46875 v 8.28125 z m -9.80468,16.32812 v -28.32031 -0.58594 h 0.58593 10.50782 0.23437 l 0.19531,0.15625 5.23438,5.23438 0.15625,0.19531 v 0.23437 5.23438 0.23437 l -0.15625,0.19532 -5.23438,5.27343 -0.19531,0.15625 h -0.23437 -6.75782 v 11.99219 0.58594 h -0.58593 -3.16407 -0.58593 z"
       id="path29"
       style="fill:#ffffff" />
    <path
       d="m 235.29807,325.57678 2.77343,-2.77344 v -15.27343 l -2.77343,-2.8125 h -5.46875 v 20.85937 z m -9.80469,3.75 v -28.32031 -0.58594 h 0.58594 10.50781 0.23437 l 0.19532,0.15625 5.23437,5.23438 0.15625,0.19531 v 0.23437 17.85157 0.23437 l -0.15625,0.19531 -5.23437,5.23438 -0.19532,0.15625 h -0.23437 -10.50781 -0.58594 z"
       id="path31"
       style="fill:#ffffff" />
    <path
       d="m 246.46994,329.32678 v -28.32031 -0.58594 h 0.58594 15.74219 0.58593 v 0.58594 3.125 0.58594 h -0.58593 -11.99219 v 7.85156 h 8.82812 0.58594 v 0.58594 3.16406 0.58594 h -0.58594 -8.82812 v 12.42187 0.58594 h -0.58594 -3.16406 -0.58594 z"
       id="path33"
       style="fill:#ffffff" />
  </g>
</svg>
